<svg width="24" height="24" viewBox="0 0 24 24" fill="none" xmlns="http://www.w3.org/2000/svg">
<path d="M13.2233 19.5834C13.5721 19.5335 13.8791 19.3618 14.1383 19.0711C14.4508 18.7207 14.6092 18.293 14.6092 17.7993C14.6092 17.3059 14.4508 16.8781 14.1383 16.5277C13.826 16.1776 13.4445 16.0001 13.004 16.0001H9.80005C9.65381 16.0001 9.52247 16.0609 9.42025 16.1756C9.31733 16.2905 9.26294 16.4381 9.26294 16.6022V21.391C9.26294 21.5552 9.3172 21.7026 9.4197 21.8172C9.52234 21.9323 9.65381 21.9933 9.80005 21.9933C9.94642 21.9933 10.0779 21.9324 10.1803 21.8174C10.283 21.7023 10.3373 21.5548 10.3373 21.391V17.2043H13.004C13.1542 17.2043 13.2735 17.2596 13.3795 17.3785C13.4856 17.4974 13.5349 17.6311 13.5349 17.7993C13.5349 17.9677 13.4856 18.1015 13.3795 18.2205C13.2735 18.3391 13.1542 18.3944 13.004 18.3944H12.0645C11.811 18.3944 11.5957 18.5507 11.5029 18.8022C11.4156 19.038 11.4573 19.309 11.6067 19.4764L13.6571 21.7745C13.6724 21.7945 13.6895 21.8137 13.7039 21.8273C13.8036 21.9358 13.931 21.9933 14.0719 21.9933C14.2179 21.9933 14.3494 21.9324 14.4524 21.8174C14.5549 21.7022 14.6092 21.5548 14.6092 21.391C14.6092 21.2324 14.558 21.0875 14.4591 20.9691L13.2233 19.5834Z" fill="#FF0000"/>
<path d="M21.463 16.0018C21.368 16.0018 21.2826 16.0188 21.2091 16.0522L21.1823 16.0643L21.0326 16.2097L19.2908 18.1265L17.5525 16.2097L17.3987 16.0648L17.3748 16.0535C17.3028 16.0191 17.2165 16.0018 17.1183 16.0018C16.7821 16.0018 16.5813 16.2244 16.5813 16.5972V21.3877C16.5813 21.7605 16.7821 21.9831 17.1183 21.9831C17.4545 21.9831 17.6552 21.7605 17.6552 21.3877V18.0704L19.2906 19.8702L20.926 18.0704V21.3877C20.926 21.7605 21.1268 21.9831 21.463 21.9831C21.7992 21.9831 22 21.7605 22 21.3877V16.5972C22 16.2244 21.7992 16.0018 21.463 16.0018Z" fill="#FF0000"/>
<path d="M4.67364 21.9998C3.1994 21.9998 2 20.6554 2 19.0027C2 17.35 3.1994 16.0055 4.67364 16.0055C5.42764 16.0055 6.15048 16.3651 6.65656 16.9922C6.78913 17.1565 6.90585 17.3378 7.00316 17.5308C7.14748 17.8175 7.05714 18.1812 6.80143 18.3431C6.54532 18.5048 6.22128 18.4037 6.07682 18.117C6.01832 18.0007 5.94808 17.8915 5.86799 17.7924C5.56294 17.4144 5.12766 17.1978 4.67364 17.1978C3.78585 17.1978 3.06355 18.0075 3.06355 19.0027C3.06355 19.9978 3.78585 20.8075 4.67364 20.8075C5.24929 20.8075 5.78503 20.4591 6.07176 19.8984C6.218 19.6129 6.54299 19.5138 6.79761 19.6776C7.05249 19.8414 7.14064 20.2057 6.99454 20.4913C6.5188 21.4217 5.6295 21.9998 4.67364 21.9998Z" fill="#FF0000"/>
<path d="M13.6761 10.9347H10.2193C10.0622 10.9347 9.9051 10.9866 9.80035 11.0906L9.01472 11.6621C8.90997 11.766 8.96235 11.9738 9.11948 11.9738H14.776C14.9331 11.9738 14.9855 11.766 14.8808 11.6621L14.0951 11.0386C13.9904 10.9866 13.8332 10.9347 13.6761 10.9347Z" fill="#FF0000"/>
<path d="M9.95715 10.1553L11.5808 7.29776C11.6332 7.1419 11.6856 7.03798 11.6856 6.88212L11.5284 5.73909C11.5284 5.58322 11.3189 5.53127 11.2142 5.68713L8.28113 10.6749C8.22876 10.8308 8.33351 10.9866 8.49063 10.8827L9.59053 10.4151C9.74765 10.4151 9.85239 10.3112 9.95715 10.1553Z" fill="#FF0000"/>
<path d="M12.4185 7.34973L14.0945 10.2073C14.1469 10.3632 14.304 10.4671 14.4087 10.519L15.4562 10.9866C15.6133 11.0386 15.7181 10.8827 15.6657 10.7788L12.7327 5.79106C12.6803 5.63519 12.4708 5.68715 12.4185 5.84301L12.2614 6.98604C12.3137 7.038 12.3137 7.19386 12.4185 7.34973Z" fill="#FF0000"/>
<path d="M12.8906 2.25807L12.7335 3.66088C12.7335 3.8687 12.7335 4.02457 12.8383 4.18043L17.0283 11.4023C17.1331 11.5581 17.2902 11.714 17.4473 11.766L18.7567 12.2855C18.9138 12.3375 19.071 12.1816 18.9662 12.0258L13.2573 2.15416C13.1525 2.05025 12.8906 2.1022 12.8906 2.25807Z" fill="#FF0000"/>
<path d="M15.9801 12.7012H7.96668C7.75718 12.7012 7.60005 12.7532 7.44293 12.8571L6.29067 13.6884C6.13354 13.7923 6.2383 14.0001 6.39542 14.0001H17.499C17.6561 14.0001 17.7609 13.7923 17.6037 13.6884L16.4515 12.8571C16.3991 12.7532 16.1896 12.7012 15.9801 12.7012Z" fill="#FF0000"/>
<path d="M6.91955 11.4023L11.1096 4.18046C11.2143 4.02459 11.2667 3.81677 11.2143 3.6609L11.0572 2.25809C11.0572 2.10223 10.7953 2.05027 10.7429 2.20614L5.03404 12.0777C4.92929 12.2336 5.08641 12.3895 5.24354 12.3375L6.55292 11.818C6.71004 11.6621 6.86717 11.5582 6.91955 11.4023Z" fill="#FF0000"/>
</svg>
