<svg width="188" height="16" viewBox="0 0 188 16" fill="none" xmlns="http://www.w3.org/2000/svg">
<path d="M13.4129 12.7835H3.33131V1.62946C3.33131 1.2117 3.15598 0.79395 2.84915 0.501522C2.54232 0.209094 2.10399 0.0419922 1.66566 0.0419922C1.22733 0.0419922 0.788995 0.209094 0.482163 0.501522C0.175332 0.79395 0 1.2117 0 1.62946V14.371C0 14.7887 0.175332 15.2065 0.482163 15.4989C0.788995 15.7913 1.22733 15.9584 1.66566 15.9584H13.4129C13.8512 15.9584 14.2896 15.7913 14.5964 15.4989C14.9032 15.2065 15.0786 14.7887 15.0786 14.371C15.0786 13.9532 14.9032 13.5355 14.5964 13.243C14.2896 12.9506 13.8951 12.7835 13.4129 12.7835Z" fill="#333333"/>
<path d="M54.2653 6.39186H47.5589C47.0767 6.39186 46.726 6.26653 46.3754 5.93233C46.0247 5.59813 45.8932 5.26392 45.8932 4.80439C45.8932 4.34486 46.0685 4.01066 46.3754 3.67646C46.726 3.34225 47.0767 3.21693 47.5589 3.21693H51.8545C52.2928 3.21693 52.7312 3.04982 53.038 2.7574C53.3448 2.46497 53.5202 2.04721 53.5202 1.62946C53.5202 1.2117 53.3448 0.79395 53.038 0.501522C52.7312 0.209094 52.2928 0.0419922 51.8545 0.0419922H47.5589C46.2 0.0419922 44.9727 0.501522 44.0084 1.46236C43.0441 2.38142 42.5181 3.55113 42.5181 4.84617C42.5181 6.14121 43.0002 7.31092 44.0084 8.22998C44.9727 9.14904 46.2 9.65035 47.5589 9.65035H54.2653C54.7475 9.65035 55.0982 9.81745 55.4488 10.1099C55.7995 10.4441 55.931 10.7783 55.931 11.2378C55.931 11.6973 55.7557 12.0315 55.4488 12.3658C55.0982 12.7 54.7475 12.8253 54.2653 12.8253H49.9697C49.5314 12.8253 49.093 12.9924 48.7862 13.2848C48.4794 13.5772 48.304 13.995 48.304 14.4127C48.304 14.8305 48.4794 15.2483 48.7862 15.5407C49.093 15.8331 49.5314 16.0002 49.9697 16.0002H54.2653C55.6242 16.0002 56.8515 15.5407 57.8158 14.5798C58.7801 13.6608 59.3061 12.4911 59.3061 11.196C59.3061 9.901 58.824 8.73129 57.8158 7.81223C56.8515 6.85139 55.668 6.39186 54.2653 6.39186Z" fill="#333333"/>
<path d="M109.671 4.80418C109.671 3.50914 109.188 2.33942 108.18 1.42037C107.216 0.501305 105.989 0 104.63 0H94.5919C94.1536 0 93.7153 0.167102 93.4084 0.45953C93.1016 0.751958 92.9263 1.16971 92.9263 1.58747V14.329C92.9263 14.7467 93.1016 15.1645 93.4084 15.4569C93.7153 15.7493 94.1536 15.9164 94.5919 15.9164C95.0303 15.9164 95.4686 15.7493 95.7754 15.4569C96.0823 15.1645 96.2576 14.7467 96.2576 14.329V3.21671H104.63C105.112 3.21671 105.463 3.38381 105.813 3.67624C106.164 4.01044 106.295 4.34465 106.295 4.80418C106.295 5.26371 106.12 5.59791 105.813 5.93211C105.463 6.26632 105.112 6.39164 104.63 6.39164H101.693C100.904 6.39164 100.246 6.8094 99.9396 7.4778C99.6766 8.10444 99.8081 8.81462 100.246 9.27415L106.646 15.3734C106.69 15.4151 106.734 15.4987 106.778 15.4987C107.084 15.7911 107.479 15.9582 107.917 15.9582C108.356 15.9582 108.794 15.7911 109.101 15.4987C109.408 15.2063 109.583 14.7885 109.583 14.3708C109.583 13.953 109.408 13.577 109.101 13.2428L105.243 9.56658C106.339 9.44125 107.304 8.98172 108.093 8.18799C109.145 7.26893 109.671 6.14099 109.671 4.80418Z" fill="#333333"/>
<path d="M183.661 9.56658C184.756 9.44125 185.721 8.98172 186.51 8.18799C187.474 7.26893 188 6.09922 188 4.80418C188 3.50914 187.518 2.33942 186.51 1.42037C185.545 0.501305 184.318 0 182.959 0H172.922C172.483 0 172.045 0.167102 171.738 0.45953C171.431 0.751958 171.256 1.16971 171.256 1.58747V14.329C171.256 14.7467 171.431 15.1645 171.738 15.4569C172.045 15.7493 172.483 15.9164 172.922 15.9164C173.36 15.9164 173.798 15.7493 174.105 15.4569C174.412 15.1645 174.587 14.7467 174.587 14.329V3.21671H182.959C183.441 3.21671 183.792 3.38381 184.143 3.67624C184.493 3.96867 184.625 4.34465 184.625 4.80418C184.625 5.26371 184.45 5.59791 184.143 5.93211C183.792 6.26632 183.441 6.39164 182.959 6.39164H180.022C179.233 6.39164 178.576 6.8094 178.269 7.4778C178.006 8.10444 178.138 8.81462 178.576 9.27415L185.019 15.3734C185.063 15.4151 185.107 15.4987 185.151 15.4987C185.458 15.7911 185.852 15.9582 186.291 15.9582C186.729 15.9582 187.167 15.7911 187.474 15.4987C187.781 15.2063 187.956 14.7885 187.956 14.3708C187.956 13.953 187.781 13.577 187.474 13.2428L183.661 9.56658Z" fill="#333333"/>
<path d="M69.0372 9.60853H77.3217C78.2422 9.60853 78.9874 8.89834 78.9874 8.02106C78.9874 7.14378 78.2422 6.43359 77.3217 6.43359H69.0372C68.1167 6.43359 67.3716 7.14378 67.3716 8.02106C67.3716 8.89834 68.1167 9.60853 69.0372 9.60853Z" fill="#333333"/>
<path d="M82.3625 0H69.0372C68.1167 0 67.3716 0.710183 67.3716 1.58747C67.3716 2.46475 68.1167 3.17493 69.0372 3.17493H82.3625C83.283 3.17493 84.0282 2.46475 84.0282 1.58747C84.0282 0.710183 83.283 0 82.3625 0Z" fill="#333333"/>
<path d="M82.3625 12.7832H69.0372C68.1167 12.7832 67.3716 13.4934 67.3716 14.3707C67.3716 15.248 68.1167 15.9581 69.0372 15.9581H82.3625C83.283 15.9581 84.0282 15.248 84.0282 14.3707C84.0282 13.4934 83.283 12.7832 82.3625 12.7832Z" fill="#333333"/>
<path d="M30.3765 0.919277C30.1135 0.376196 29.5437 0.0419922 28.8862 0.0419922H28.8423C28.2287 0.0419922 27.6589 0.376196 27.352 0.919277L20.6017 13.6608C20.3826 14.0368 20.3826 14.4963 20.5141 14.8723C20.6456 15.2483 20.9524 15.6242 21.3469 15.7913C21.5661 15.9167 21.8291 15.9584 22.0921 15.9584C22.2674 15.9584 22.4427 15.9167 22.618 15.8749C23.0564 15.7496 23.407 15.4571 23.5824 15.0812L28.7985 5.18037L34.1023 15.0812C34.3215 15.4571 34.6283 15.7496 35.0666 15.8749C35.505 16.0002 35.9433 15.9584 36.3378 15.7913C36.7323 15.5825 37.0391 15.29 37.1706 14.8723C37.3021 14.4545 37.2583 14.0368 37.083 13.6608L30.3765 0.919277Z" fill="#333333"/>
<path d="M158.325 1.08638C158.194 0.710399 157.887 0.376196 157.492 0.209094C157.273 0.0837675 157.01 0.0419922 156.747 0.0419922C156.484 0.0419922 156.221 0.0837675 156.002 0.209094C155.608 0.376196 155.345 0.710399 155.213 1.0446L148.55 13.6608C148.331 14.0368 148.331 14.4963 148.463 14.8723C148.594 15.2483 148.901 15.6242 149.296 15.7913C149.515 15.9167 149.778 15.9584 150.041 15.9584C150.216 15.9584 150.391 15.9167 150.567 15.8749C151.005 15.7496 151.356 15.4571 151.531 15.0812L156.747 5.18037L161.963 15.0812C162.402 15.8749 163.41 16.2091 164.243 15.7913C164.637 15.5825 164.944 15.29 165.076 14.8723C165.207 14.4545 165.163 14.0368 164.988 13.6608L158.325 1.08638Z" fill="#333333"/>
<path d="M144.474 0.209223L144.342 0.459876L144.474 0.209223C143.641 -0.208531 142.633 0.125673 142.194 0.919406L136.978 10.8202L131.85 1.08651C131.718 0.710529 131.412 0.376325 131.017 0.209223C130.798 0.0838967 130.535 0.0421214 130.272 0.0421214C130.009 0.0421214 129.746 0.0838967 129.527 0.209223C129.132 0.376325 128.869 0.710528 128.738 1.04473L123.565 10.8202L118.349 0.919406C117.911 0.125673 116.903 -0.208531 116.07 0.209223C115.675 0.4181 115.369 0.710529 115.237 1.12828C115.106 1.54604 115.149 1.96379 115.325 2.33977L122.031 15.0813C122.294 15.5826 122.82 15.9168 123.434 15.9586H123.565H123.653C124.267 15.9168 124.793 15.5826 125.056 15.0813L130.272 5.1805L135.444 15.0813C135.707 15.6244 136.277 15.9586 136.934 15.9586H136.978C137.592 15.9586 138.162 15.6244 138.469 15.0813L145.219 2.33977C145.438 1.96379 145.438 1.50426 145.307 1.12828C145.175 0.752304 144.868 0.4181 144.474 0.209223Z" fill="#333333"/>
</svg>
