<svg width="25" height="24" viewBox="0 0 25 24" fill="none" xmlns="http://www.w3.org/2000/svg">
<g clip-path="url(#clip0_1898_30931)">
<path d="M6.06891 14.5035L5.2335 17.6222L2.18011 17.6868C1.26759 15.9943 0.75 14.0578 0.75 12C0.75 10.0101 1.23394 8.13362 2.09175 6.48132H2.09241L4.81078 6.9797L6.00159 9.68176C5.75236 10.4084 5.61652 11.1884 5.61652 12C5.61661 12.8809 5.77617 13.7249 6.06891 14.5035Z" fill="#FBBB00"/>
<path d="M24.5403 9.75824C24.6781 10.4841 24.75 11.2338 24.75 12C24.75 12.8591 24.6597 13.6971 24.4876 14.5055C23.9034 17.2563 22.377 19.6582 20.2625 21.358L20.2619 21.3574L16.838 21.1827L16.3534 18.1576C17.7564 17.3347 18.8529 16.047 19.4305 14.5055H13.0138V9.75824H19.5241H24.5403Z" fill="#518EF8"/>
<path d="M20.2618 21.3574L20.2625 21.3581C18.206 23.011 15.5937 24.0001 12.7499 24.0001C8.18005 24.0001 4.20688 21.4458 2.18005 17.6869L6.06885 14.5036C7.08224 17.2082 9.69126 19.1335 12.7499 19.1335C14.0646 19.1335 15.2963 18.7781 16.3532 18.1576L20.2618 21.3574Z" fill="#28B446"/>
<path d="M20.4096 2.76263L16.5221 5.94525C15.4283 5.26153 14.1353 4.86656 12.7501 4.86656C9.62213 4.86656 6.96431 6.88017 6.00169 9.68175L2.09245 6.48131H2.0918C4.08895 2.63077 8.11224 0 12.7501 0C15.6617 0 18.3314 1.03716 20.4096 2.76263Z" fill="#F14336"/>
</g>
<defs>
<clipPath id="clip0_1898_30931">
<rect width="24" height="24" fill="white" transform="translate(0.75)"/>
</clipPath>
</defs>
</svg>
