<svg width="16" height="16" viewBox="0 0 16 16" fill="none" xmlns="http://www.w3.org/2000/svg">
<path d="M7.3335 11.9999H8.66683V10.6666H7.3335V11.9999ZM8.00016 1.33325C4.32016 1.33325 1.3335 4.31992 1.3335 7.99992C1.3335 11.6799 4.32016 14.6666 8.00016 14.6666C11.6802 14.6666 14.6668 11.6799 14.6668 7.99992C14.6668 4.31992 11.6802 1.33325 8.00016 1.33325ZM8.00016 13.3333C5.06016 13.3333 2.66683 10.9399 2.66683 7.99992C2.66683 5.05992 5.06016 2.66659 8.00016 2.66659C10.9402 2.66659 13.3335 5.05992 13.3335 7.99992C13.3335 10.9399 10.9402 13.3333 8.00016 13.3333ZM8.00016 3.99992C6.52683 3.99992 5.3335 5.19325 5.3335 6.66659H6.66683C6.66683 5.93325 7.26683 5.33325 8.00016 5.33325C8.7335 5.33325 9.3335 5.93325 9.3335 6.66659C9.3335 7.99992 7.3335 7.83325 7.3335 9.99992H8.66683C8.66683 8.49992 10.6668 8.33325 10.6668 6.66659C10.6668 5.19325 9.4735 3.99992 8.00016 3.99992Z" fill="#AAA9A9"/>
</svg>
