<svg width="24" height="24" viewBox="0 0 24 24" fill="none" xmlns="http://www.w3.org/2000/svg">
<path d="M19.8415 8.54102C19.8415 8.71602 19.8415 8.89102 19.8415 9.04102C19.8415 14.216 15.8915 20.191 8.6915 20.191C6.4665 20.191 4.4165 19.541 2.6665 18.441C2.9665 18.466 3.2915 18.491 3.5915 18.491C5.4165 18.491 7.1165 17.866 8.4665 16.816C6.7415 16.791 5.2915 15.641 4.8165 14.091C5.0665 14.141 5.2915 14.166 5.5665 14.166C5.9165 14.166 6.2665 14.116 6.5915 14.016C4.7915 13.666 3.4415 12.091 3.4415 10.191C3.4415 10.166 3.4415 10.166 3.4415 10.141C3.9665 10.441 4.5665 10.616 5.2165 10.641C4.1665 9.94102 3.4665 8.74101 3.4665 7.36602C3.4665 6.64102 3.6665 5.96602 3.9915 5.39102C5.9165 7.76602 8.8165 9.31602 12.0665 9.49101C11.9915 9.21601 11.9665 8.89102 11.9665 8.59102C11.9665 6.41602 13.7165 4.66602 15.8915 4.66602C17.0165 4.66602 18.0415 5.14102 18.7415 5.89102C19.6415 5.71602 20.4665 5.39102 21.2415 4.94102C20.9415 5.86602 20.3165 6.61602 19.5165 7.11602C20.3165 7.01602 21.0665 6.81602 21.7665 6.49102C21.2665 7.29102 20.6165 7.99102 19.8415 8.54102Z" fill="#26A7DE"/>
</svg>
