<svg width="16" height="16" viewBox="0 0 16 16" fill="none" xmlns="http://www.w3.org/2000/svg">
<path d="M4.62465 4.28711C2.07657 5.57746 1 8.00001 1 8.00001C1 8.00001 3 12.4995 8 12.4995C9.1715 12.5089 10.3284 12.239 11.3748 11.7124" stroke="#AAA9A9" stroke-linecap="round" stroke-linejoin="round"/>
<path d="M13.0383 10.5687C14.4009 9.34827 15.0002 8.00001 15.0002 8.00001C15.0002 8.00001 13.0002 3.49952 8.00016 3.49952C7.56711 3.49881 7.13475 3.53402 6.70752 3.60478" stroke="#AAA9A9" stroke-linecap="round" stroke-linejoin="round"/>
<path d="M5.87868 10.1213C5.36437 9.60701 5.05442 8.92336 5.00651 8.19759C4.95861 7.47182 5.17601 6.75336 5.61826 6.17591C6.06051 5.59845 6.69749 5.20134 7.41067 5.05845C8.12385 4.91557 8.86465 5.03665 9.49522 5.39917C10.1258 5.76168 10.6032 6.34094 10.8386 7.02915C11.0739 7.71736 11.0513 8.46765 10.7748 9.1404C10.4983 9.81314 9.98682 10.3625 9.33552 10.6863C8.68422 11.0101 7.93747 11.0863 7.23421 10.9006L7.47709 9.98067C7.9573 10.1074 8.46722 10.0554 8.91195 9.83434C9.35669 9.61324 9.70595 9.23809 9.89475 8.77871C10.0835 8.31933 10.099 7.807 9.93829 7.33706C9.77757 6.86712 9.45158 6.47158 9.021 6.22404C8.59042 5.9765 8.08457 5.89382 7.59758 5.99139C7.11059 6.08895 6.67563 6.36012 6.37365 6.75443C6.07166 7.14874 5.92321 7.63933 5.95592 8.13492C5.98863 8.63051 6.20028 9.09733 6.55147 9.44853L5.87868 10.1213Z" fill="#AAA9A9"/>
</svg>
