<svg width="24" height="24" viewBox="0 0 24 24" fill="none" xmlns="http://www.w3.org/2000/svg">
<path fill-rule="evenodd" clip-rule="evenodd" d="M22.1774 7.02291C22.3257 6.52846 22.1774 6.16504 21.4715 6.16504H19.1377C18.5442 6.16504 18.2708 6.47895 18.1224 6.82519C18.1224 6.82519 16.9355 9.71804 15.2541 11.5971C14.7101 12.1411 14.4629 12.314 14.1662 12.314C14.0178 12.314 13.8031 12.1411 13.8031 11.6467V7.02291C13.8031 6.42943 13.6309 6.16504 13.1363 6.16504H9.46873C9.09797 6.16504 8.87492 6.44044 8.87492 6.7015C8.87492 7.26413 9.71545 7.39383 9.80214 8.9762V12.4132C9.80214 13.1667 9.66611 13.3034 9.36937 13.3034C8.57819 13.3034 6.65374 10.3974 5.51214 7.07242C5.28842 6.4261 5.06403 6.16504 4.46756 6.16504H2.13368C1.46686 6.16504 1.3335 6.47895 1.3335 6.82519C1.3335 7.44334 2.12485 10.5094 5.01769 14.5643C6.94647 17.3333 9.66344 18.8347 12.136 18.8347C13.6197 18.8347 13.8031 18.5013 13.8031 17.927V15.834C13.8031 15.1671 13.9436 15.0341 14.4132 15.0341C14.7596 15.0341 15.3529 15.2072 16.7378 16.5423C18.3201 18.1245 18.5809 18.8347 19.4711 18.8347H21.8049C22.4718 18.8347 22.8052 18.5013 22.6128 17.8433C22.4024 17.1874 21.6469 16.2362 20.6443 15.1083C20.1004 14.4653 19.2844 13.773 19.0373 13.4269C18.691 12.9818 18.7899 12.7841 19.0373 12.3887C19.0373 12.3887 21.8806 8.38306 22.1774 7.02307V7.02291Z" fill="#4680C2"/>
</svg>
