<svg width="24" height="24" viewBox="0 0 24 24" fill="none" xmlns="http://www.w3.org/2000/svg">
<path fill-rule="evenodd" clip-rule="evenodd" d="M2.22199 5.41165C1.11457 6.53964 1.08115 7.96127 1.01431 10.8045C1.00512 11.1958 1 11.5954 1 12C1 12.4046 1.00512 12.8042 1.01431 13.1955C1.08115 16.0387 1.11457 17.4604 2.22199 18.5883C3.32941 19.7163 4.82395 19.779 7.81303 19.9043C9.16003 19.9608 10.5996 20 12 20C13.4004 20 14.84 19.9608 16.187 19.9043C19.176 19.779 20.6706 19.7163 21.778 18.5883C22.8854 17.4604 22.9188 16.0387 22.9857 13.1955C22.9949 12.8042 23 12.4046 23 12C23 11.5954 22.9949 11.1958 22.9857 10.8045C22.9188 7.96127 22.8854 6.53964 21.778 5.41165C20.6706 4.28367 19.176 4.22101 16.187 4.09569C14.84 4.03922 13.4004 4 12 4C10.5996 4 9.16003 4.03922 7.81303 4.09569C4.82395 4.22101 3.32941 4.28367 2.22199 5.41165ZM9 16L16 12L9 8V16Z" fill="#FF0000"/>
</svg>
