<svg width="122" height="12" viewBox="0 0 122 12" fill="none" xmlns="http://www.w3.org/2000/svg">
<path d="M8.70413 9.58763H2.16181V1.22209C2.16181 0.908778 2.04803 0.595463 1.84892 0.376142C1.6498 0.156821 1.36535 0.0314941 1.0809 0.0314941C0.796456 0.0314941 0.512007 0.156821 0.312893 0.376142C0.113779 0.595463 0 0.908778 0 1.22209V10.7782C0 11.0915 0.113779 11.4049 0.312893 11.6242C0.512007 11.8435 0.796456 11.9688 1.0809 11.9688H8.70413C8.98858 11.9688 9.27303 11.8435 9.47214 11.6242C9.67126 11.4049 9.78503 11.0915 9.78503 10.7782C9.78503 10.4649 9.67126 10.1516 9.47214 9.93227C9.27303 9.71295 9.01702 9.58763 8.70413 9.58763Z" fill="#333333"/>
<path d="M35.2145 4.79414H30.8625C30.5496 4.79414 30.322 4.70014 30.0945 4.44949C29.8669 4.19884 29.7816 3.94819 29.7816 3.60354C29.7816 3.25889 29.8953 3.00824 30.0945 2.75759C30.322 2.50693 30.5496 2.41294 30.8625 2.41294H33.6501C33.9345 2.41294 34.219 2.28761 34.4181 2.06829C34.6172 1.84897 34.731 1.53565 34.731 1.22234C34.731 0.909022 34.6172 0.595707 34.4181 0.376386C34.219 0.157065 33.9345 0.0317383 33.6501 0.0317383H30.8625C29.9807 0.0317383 29.1842 0.376386 28.5584 1.09701C27.9326 1.78631 27.5913 2.66359 27.5913 3.63487C27.5913 4.60615 27.9042 5.48343 28.5584 6.17273C29.1842 6.86202 29.9807 7.238 30.8625 7.238H35.2145C35.5274 7.238 35.755 7.36333 35.9825 7.58265C36.2101 7.8333 36.2954 8.08395 36.2954 8.4286C36.2954 8.77325 36.1816 9.0239 35.9825 9.27456C35.755 9.52521 35.5274 9.6192 35.2145 9.6192H32.4269C32.1425 9.6192 31.858 9.74453 31.6589 9.96385C31.4598 10.1832 31.346 10.4965 31.346 10.8098C31.346 11.1231 31.4598 11.4364 31.6589 11.6558C31.858 11.8751 32.1425 12.0004 32.4269 12.0004H35.2145C36.0963 12.0004 36.8928 11.6558 37.5186 10.9351C38.1443 10.2458 38.4857 9.36855 38.4857 8.39727C38.4857 7.42599 38.1728 6.54871 37.5186 5.85941C36.8928 5.13879 36.1248 4.79414 35.2145 4.79414Z" fill="#333333"/>
<path d="M71.1692 3.60313C71.1692 2.63185 70.8563 1.75457 70.202 1.06527C69.5762 0.375979 68.7798 0 67.898 0H61.3841C61.0997 0 60.8152 0.125326 60.6161 0.344647C60.417 0.563969 60.3032 0.877285 60.3032 1.1906V10.7467C60.3032 11.06 60.417 11.3734 60.6161 11.5927C60.8152 11.812 61.0997 11.9373 61.3841 11.9373C61.6686 11.9373 61.953 11.812 62.1521 11.5927C62.3513 11.3734 62.465 11.06 62.465 10.7467V2.41253H67.898C68.2109 2.41253 68.4384 2.53786 68.666 2.75718C68.8936 3.00783 68.9789 3.25849 68.9789 3.60313C68.9789 3.94778 68.8651 4.19843 68.666 4.44908C68.4384 4.69974 68.2109 4.79373 67.898 4.79373H65.9922C65.4802 4.79373 65.0535 5.10705 64.8544 5.60835C64.6837 6.07833 64.7691 6.61096 65.0535 6.95561L69.2065 11.53C69.2349 11.5614 69.2634 11.624 69.2918 11.624C69.4909 11.8433 69.7469 11.9687 70.0314 11.9687C70.3158 11.9687 70.6003 11.8433 70.7994 11.624C70.9985 11.4047 71.1123 11.0914 71.1123 10.7781C71.1123 10.4647 70.9985 10.1828 70.7994 9.93211L68.2962 7.17493C69.0073 7.08094 69.6331 6.73629 70.1451 6.14099C70.8278 5.45169 71.1692 4.60574 71.1692 3.60313Z" fill="#333333"/>
<path d="M119.184 7.17493C119.895 7.08094 120.521 6.73629 121.033 6.14099C121.659 5.45169 122 4.57441 122 3.60313C122 2.63185 121.687 1.75457 121.033 1.06527C120.407 0.375979 119.611 0 118.729 0H112.215C111.931 0 111.646 0.125326 111.447 0.344647C111.248 0.563969 111.134 0.877285 111.134 1.1906V10.7467C111.134 11.06 111.248 11.3734 111.447 11.5927C111.646 11.812 111.931 11.9373 112.215 11.9373C112.5 11.9373 112.784 11.812 112.983 11.5927C113.182 11.3734 113.296 11.06 113.296 10.7467V2.41253H118.729C119.042 2.41253 119.27 2.53786 119.497 2.75718C119.725 2.9765 119.81 3.25849 119.81 3.60313C119.81 3.94778 119.696 4.19843 119.497 4.44908C119.27 4.69974 119.042 4.79373 118.729 4.79373H116.823C116.311 4.79373 115.885 5.10705 115.685 5.60835C115.515 6.07833 115.6 6.61096 115.885 6.95561L120.066 11.53C120.094 11.5614 120.123 11.624 120.151 11.624C120.35 11.8433 120.606 11.9687 120.891 11.9687C121.175 11.9687 121.46 11.8433 121.659 11.624C121.858 11.4047 121.972 11.0914 121.972 10.7781C121.972 10.4647 121.858 10.1828 121.659 9.93211L119.184 7.17493Z" fill="#333333"/>
<path d="M44.8006 7.20591H50.1767C50.7741 7.20591 51.2576 6.67327 51.2576 6.01531C51.2576 5.35734 50.7741 4.82471 50.1767 4.82471H44.8006C44.2033 4.82471 43.7197 5.35734 43.7197 6.01531C43.7197 6.67327 44.2033 7.20591 44.8006 7.20591Z" fill="#333333"/>
<path d="M53.4479 0H44.8006C44.2033 0 43.7197 0.532637 43.7197 1.1906C43.7197 1.84856 44.2033 2.3812 44.8006 2.3812H53.4479C54.0452 2.3812 54.5288 1.84856 54.5288 1.1906C54.5288 0.532637 54.0452 0 53.4479 0Z" fill="#333333"/>
<path d="M53.4479 9.5874H44.8006C44.2033 9.5874 43.7197 10.12 43.7197 10.778C43.7197 11.436 44.2033 11.9686 44.8006 11.9686H53.4479C54.0452 11.9686 54.5288 11.436 54.5288 10.778C54.5288 10.12 54.0452 9.5874 53.4479 9.5874Z" fill="#333333"/>
<path d="M19.7122 0.689702C19.5416 0.282391 19.1718 0.0317383 18.7451 0.0317383H18.7167C18.3184 0.0317383 17.9487 0.282391 17.7495 0.689702L13.369 10.2458C13.2268 10.5278 13.2268 10.8725 13.3121 11.1544C13.3975 11.4364 13.5966 11.7184 13.8526 11.8437C13.9948 11.9377 14.1655 11.9691 14.3362 11.9691C14.4499 11.9691 14.5637 11.9377 14.6775 11.9064C14.9619 11.8124 15.1895 11.5931 15.3033 11.3111L18.6882 3.88552L22.1301 11.3111C22.2723 11.5931 22.4714 11.8124 22.7558 11.9064C23.0403 12.0004 23.3247 11.9691 23.5807 11.8437C23.8367 11.6871 24.0359 11.4678 24.1212 11.1544C24.2065 10.8411 24.1781 10.5278 24.0643 10.2458L19.7122 0.689702Z" fill="#333333"/>
<path d="M102.743 0.815028C102.658 0.533044 102.459 0.282391 102.203 0.157064C102.06 0.0630697 101.89 0.0317383 101.719 0.0317383C101.548 0.0317383 101.378 0.0630697 101.235 0.157064C100.979 0.282391 100.809 0.533044 100.723 0.783696L96.3998 10.2458C96.2576 10.5278 96.2576 10.8725 96.3429 11.1545C96.4282 11.4364 96.6274 11.7184 96.8834 11.8437C97.0256 11.9377 97.1962 11.9691 97.3669 11.9691C97.4807 11.9691 97.5945 11.9377 97.7083 11.9064C97.9927 11.8124 98.2203 11.5931 98.334 11.3111L101.719 3.88552L105.104 11.3111C105.388 11.9064 106.043 12.1571 106.583 11.8437C106.839 11.6871 107.038 11.4678 107.124 11.1545C107.209 10.8411 107.18 10.5278 107.067 10.2458L102.743 0.815028Z" fill="#333333"/>
<path d="M93.7543 0.156673L93.6689 0.344663L93.7543 0.156673C93.2138 -0.156643 92.5596 0.0940102 92.2751 0.68931L88.8902 8.11489L85.5622 0.814636C85.4768 0.532652 85.2777 0.281999 85.0217 0.156673C84.8795 0.0626784 84.7088 0.0313469 84.5381 0.0313469C84.3675 0.0313469 84.1968 0.0626784 84.0546 0.156673C83.7986 0.281999 83.6279 0.532652 83.5426 0.783305L80.1861 8.11489L76.8011 0.68931C76.5167 0.0940102 75.8625 -0.156643 75.322 0.156673C75.066 0.313331 74.8669 0.532652 74.7815 0.845968C74.6962 1.15928 74.7247 1.4726 74.8384 1.75458L79.1905 11.3107C79.3612 11.6867 79.7025 11.9373 80.1007 11.9687H80.1861H80.243C80.6412 11.9373 80.9825 11.6867 81.1532 11.3107L84.5381 3.88513L87.8946 11.3107C88.0653 11.718 88.4351 11.9687 88.8618 11.9687H88.8902C89.2884 11.9687 89.6582 11.718 89.8573 11.3107L94.2378 1.75458C94.3801 1.4726 94.3801 1.12795 94.2947 0.845968C94.2094 0.563984 94.0103 0.313331 93.7543 0.156673Z" fill="#333333"/>
</svg>
