<svg width="35" height="30" viewBox="0 0 35 30" fill="none" xmlns="http://www.w3.org/2000/svg">
<g clip-path="url(#clip0_1852_20048)">
<path d="M21.6901 22.272H13.0482C12.6554 22.272 12.2626 22.4029 12.0007 22.665L10.0366 24.1057C9.77476 24.3677 9.90571 24.8917 10.2985 24.8917H24.4398C24.8327 24.8917 24.9636 24.3677 24.7017 24.1057L22.7377 22.5339C22.4758 22.4029 22.083 22.272 21.6901 22.272Z" fill="#FF0000"/>
<path d="M12.3925 20.3073L16.4517 13.1034C16.5826 12.7104 16.7136 12.4484 16.7136 12.0555L16.3208 9.1739C16.3208 8.78096 15.797 8.64998 15.5352 9.04292L8.20252 21.6171C8.07158 22.01 8.33345 22.4031 8.72627 22.141L11.476 20.9622C11.8688 20.9622 12.1307 20.7003 12.3925 20.3073Z" fill="#FF0000"/>
<path d="M18.5461 13.2346L22.7362 20.4386C22.8671 20.8315 23.2599 21.0934 23.5217 21.2244L26.1405 22.4033C26.5333 22.5343 26.7953 22.1413 26.6642 21.8793L19.3317 9.30513C19.2008 8.91218 18.677 9.04317 18.5461 9.43611L18.1533 12.3177C18.2842 12.4486 18.2842 12.8417 18.5461 13.2346Z" fill="#FF0000"/>
<path d="M19.7263 0.398251L19.3335 3.93475C19.3335 4.45868 19.3335 4.85162 19.5953 5.24456L30.0705 23.451C30.3324 23.8439 30.7252 24.2368 31.118 24.3679L34.3914 25.6776C34.7842 25.8086 35.1771 25.4157 34.9152 25.0228L20.6429 0.136288C20.381 -0.125674 19.7263 0.00530752 19.7263 0.398251Z" fill="#FF0000"/>
<path d="M27.4501 26.7256H7.41657C6.89282 26.7256 6.5 26.8566 6.10719 27.1185L3.22653 29.2142C2.83373 29.4761 3.09561 30 3.48843 30H31.2473C31.6401 30 31.902 29.4761 31.5092 29.2142L28.6286 27.1185C28.4976 26.8566 27.9738 26.7256 27.4501 26.7256Z" fill="#FF0000"/>
<path d="M4.79856 23.4506L15.2736 5.2441C15.5355 4.85115 15.6664 4.32723 15.5355 3.93428L15.1427 0.397781C15.1427 0.00483664 14.488 -0.126145 14.357 0.266799L0.0847939 25.1532C-0.177082 25.5462 0.215724 25.9392 0.608538 25.8082L3.88199 24.4983C4.2748 24.1054 4.66763 23.8435 4.79856 23.4506Z" fill="#FF0000"/>
</g>
<defs>
<clipPath id="clip0_1852_20048">
<rect width="35" height="30" fill="white"/>
</clipPath>
</defs>
</svg>
