<svg xmlns="http://www.w3.org/2000/svg" width="35" height="30" fill="none" viewBox="0 0 35 30"><g fill="red" clip-path="url(#a)"><path d="M21.69 22.272h-8.642c-.393 0-.785.13-1.047.393l-1.964 1.44c-.262.263-.131.787.261.787H24.44c.393 0 .524-.524.262-.786l-1.964-1.572a2.466 2.466 0 0 0-1.048-.262Zm-9.297-1.965 4.059-7.204c.13-.393.262-.655.262-1.047l-.393-2.882c0-.393-.524-.524-.786-.131L8.203 21.617c-.131.393.13.786.523.524l2.75-1.179c.393 0 .655-.262.916-.655Zm6.153-7.072 4.19 7.204c.131.392.524.654.786.785l2.619 1.18c.392.13.654-.263.523-.525L19.332 9.305c-.131-.393-.655-.262-.786.131l-.393 2.882c.131.13.131.524.393.917ZM19.726.398l-.392 3.537c0 .524 0 .917.261 1.31L30.071 23.45c.261.393.654.786 1.047.917l3.273 1.31c.393.13.786-.262.524-.655L20.643.136c-.262-.262-.917-.13-.917.262Zm7.724 26.328H7.417c-.524 0-.917.13-1.31.393l-2.88 2.095c-.393.262-.131.786.261.786h27.76c.392 0 .654-.524.261-.786l-2.88-2.095c-.131-.262-.655-.393-1.179-.393ZM4.799 23.45 15.274 5.245c.262-.393.392-.917.262-1.31L15.143.398c0-.393-.655-.524-.786-.131L.085 25.153c-.262.393.13.786.524.655l3.273-1.31c.393-.393.786-.655.917-1.047Z"/></g><defs><clipPath id="a"><path fill="#fff" d="M0 0h35v30H0z"/></clipPath></defs></svg>