<svg xmlns="http://www.w3.org/2000/svg" width="122" height="12" fill="none" viewBox="0 0 122 12"><path fill="#333" d="M8.704 9.588H2.162V1.222c0-.313-.114-.627-.313-.846-.2-.22-.484-.345-.768-.345a1.05 1.05 0 0 0-.768.345C.113.596 0 .91 0 1.222v9.556c0 .313.114.627.313.846.199.22.483.345.768.345h7.623c.285 0 .569-.125.768-.345.2-.22.313-.533.313-.846a1.28 1.28 0 0 0-.313-.846 1 1 0 0 0-.768-.344Zm26.511-4.794h-4.353c-.312 0-.54-.094-.767-.345-.228-.25-.313-.5-.313-.845s.113-.596.313-.846a.943.943 0 0 1 .768-.345h2.787c.285 0 .569-.125.768-.345.2-.219.313-.532.313-.846a1.28 1.28 0 0 0-.313-.846 1.048 1.048 0 0 0-.768-.344h-2.787c-.882 0-1.679.344-2.305 1.065a3.716 3.716 0 0 0-.967 2.538c0 .971.313 1.848.967 2.538.626.689 1.423 1.065 2.305 1.065h4.352c.312 0 .54.125.767.345.228.25.313.5.313.846 0 .344-.113.595-.313.846a.945.945 0 0 1-.767.344h-2.788a1.05 1.05 0 0 0-.768.345c-.2.22-.313.532-.313.846 0 .313.114.626.313.846.199.22.483.344.768.344h2.788c.881 0 1.678-.344 2.304-1.065a3.72 3.72 0 0 0 .967-2.538c0-.971-.313-1.848-.967-2.538-.626-.72-1.394-1.065-2.304-1.065ZM71.17 3.603c0-.971-.314-1.848-.968-2.538C69.576.376 68.78 0 67.898 0h-6.514c-.284 0-.569.125-.768.345a1.276 1.276 0 0 0-.313.846v9.556c0 .313.114.626.313.846.2.219.484.344.768.344.285 0 .569-.125.768-.344.2-.22.313-.533.313-.846V2.413h5.433c.313 0 .54.125.768.344.228.25.313.501.313.846s-.114.595-.313.846c-.228.25-.455.345-.768.345h-1.906c-.512 0-.939.313-1.138.814-.17.47-.085 1.003.2 1.348l4.153 4.574c.028.031.056.094.085.094.199.22.455.345.74.345.284 0 .568-.126.767-.345.2-.22.313-.533.313-.846a1.34 1.34 0 0 0-.313-.846l-2.503-2.757c.711-.094 1.337-.439 1.85-1.034.682-.69 1.023-1.535 1.023-2.538Zm48.014 3.572c.711-.094 1.337-.439 1.849-1.034.626-.69.967-1.567.967-2.538 0-.971-.313-1.848-.967-2.538C120.407.376 119.611 0 118.729 0h-6.514a1.05 1.05 0 0 0-.768.345 1.276 1.276 0 0 0-.313.846v9.556c0 .313.114.626.313.846.199.219.484.344.768.344.285 0 .569-.125.768-.344a1.28 1.28 0 0 0 .313-.846V2.413h5.433c.313 0 .541.125.768.344.228.22.313.501.313.846s-.114.595-.313.846a.944.944 0 0 1-.768.345h-1.906c-.512 0-.938.313-1.138.814-.17.47-.085 1.003.2 1.348l4.181 4.574c.028.031.057.094.085.094.199.22.455.345.74.345.284 0 .569-.126.768-.345a1.28 1.28 0 0 0 .313-.846 1.34 1.34 0 0 0-.313-.846l-2.475-2.757ZM44.8 7.206h5.377c.597 0 1.08-.533 1.08-1.19 0-.659-.483-1.191-1.08-1.191H44.8c-.598 0-1.081.532-1.081 1.19 0 .658.483 1.19 1.08 1.19ZM53.448 0H44.8c-.598 0-1.081.533-1.081 1.19 0 .659.483 1.191 1.08 1.191h8.648c.597 0 1.08-.532 1.08-1.19 0-.658-.483-1.191-1.08-1.191Zm0 9.587H44.8c-.598 0-1.081.533-1.081 1.191s.483 1.19 1.08 1.19h8.648c.597 0 1.08-.532 1.08-1.19 0-.658-.483-1.19-1.08-1.19ZM19.712.69a1.039 1.039 0 0 0-.967-.658h-.028c-.399 0-.768.25-.967.658l-4.381 9.556c-.142.282-.142.627-.057.908.086.282.285.564.54.69a.866.866 0 0 0 .484.125c.114 0 .228-.031.341-.063.285-.094.513-.313.626-.595l3.385-7.425 3.442 7.425c.142.282.341.501.626.595.284.094.569.063.825-.062.256-.157.455-.376.54-.69a1.414 1.414 0 0 0-.057-.908L19.712.69Zm83.031.125a1.086 1.086 0 0 0-.54-.658.868.868 0 0 0-.484-.125.868.868 0 0 0-.484.125c-.256.125-.426.376-.512.627L96.4 10.246c-.142.282-.142.627-.057.909.085.281.284.563.54.689a.866.866 0 0 0 .484.125c.114 0 .227-.031.341-.063.285-.094.512-.313.626-.595l3.385-7.425 3.385 7.425c.284.595.939.846 1.479.533.256-.157.455-.376.541-.69a1.422 1.422 0 0 0-.057-.908L102.743.815ZM93.754.157l-.085.188.085-.188c-.54-.314-1.194-.063-1.479.532L88.89 8.115l-3.328-7.3a1.088 1.088 0 0 0-.54-.658.866.866 0 0 0-.484-.126.866.866 0 0 0-.483.126c-.256.125-.427.376-.512.626l-3.357 7.332L76.801.689c-.284-.595-.939-.846-1.479-.532a1.15 1.15 0 0 0-.54.689c-.086.313-.057.627.056.909l4.353 9.556c.17.376.511.626.91.658h.142c.398-.032.74-.282.91-.658l3.385-7.426 3.357 7.426c.17.407.54.658.967.658h.028c.398 0 .768-.251.967-.658l4.38-9.556c.143-.282.143-.627.058-.909a1.248 1.248 0 0 0-.54-.69Z"/></svg>