<svg width="20" height="20" viewBox="0 0 20 20" fill="none" xmlns="http://www.w3.org/2000/svg">
<g clip-path="url(#clip0_3358_2787)">
<path d="M11.5085 15.1428C12.0363 15.4833 12.6653 15.6317 13.2897 15.563C13.9141 15.4943 14.4959 15.2128 14.9371 14.7656L15.3228 14.3885C15.4919 14.2155 15.5866 13.9832 15.5866 13.7413C15.5866 13.4995 15.4919 13.2672 15.3228 13.0942L13.6856 11.4742C13.5141 11.3056 13.2833 11.2112 13.0428 11.2112C12.8023 11.2112 12.5714 11.3056 12.3999 11.4742V11.4742C12.227 11.6433 11.9947 11.738 11.7528 11.738C11.5109 11.738 11.2786 11.6433 11.1056 11.4742L8.53421 8.90277C8.44842 8.81824 8.38031 8.71749 8.33381 8.6064C8.28731 8.4953 8.26337 8.37607 8.26337 8.25563C8.26337 8.1352 8.28731 8.01596 8.33381 7.90487C8.38031 7.79377 8.44842 7.69302 8.53421 7.60849V7.60849C8.70277 7.43697 8.79722 7.20611 8.79722 6.96563C8.79722 6.72515 8.70277 6.49429 8.53421 6.32277L6.90563 4.6942C6.73267 4.5251 6.50038 4.43042 6.25849 4.43042C6.0166 4.43042 5.78431 4.5251 5.61135 4.6942L5.23421 5.07992C4.78707 5.52112 4.50549 6.10283 4.43681 6.72723C4.36812 7.35163 4.51653 7.98064 4.85706 8.50849C6.63139 11.1234 8.88901 13.3752 11.5085 15.1428V15.1428Z" stroke="#888888" stroke-linecap="round" stroke-linejoin="round"/>
</g>
<rect x="0.75" y="0.75" width="18.5" height="18.5" rx="9.25" stroke="#888888" stroke-width="1.5"/>
<defs>
<clipPath id="clip0_3358_2787">
<rect width="12" height="12" fill="white" transform="translate(4 4)"/>
</clipPath>
</defs>
</svg>
