<svg width="20" height="20" viewBox="0 0 20 20" fill="none" xmlns="http://www.w3.org/2000/svg">
<g clip-path="url(#clip0_3358_2814)">
<path d="M9.99985 12.88C8.29485 12.88 7.54485 12.03 7.54485 11.425C7.54615 11.2795 7.60452 11.1404 7.70738 11.0375C7.81024 10.9347 7.94938 10.8763 8.09485 10.875C8.79485 10.875 8.64485 11.925 9.99985 11.925C10.6998 11.925 11.0498 11.575 11.0498 11.175C11.0498 10.925 10.9498 10.675 10.4998 10.575L8.99985 10.225C7.79985 9.925 7.59485 9.275 7.59485 8.67C7.59485 7.42 8.79485 6.915 9.89985 6.915C11.0048 6.915 12.1548 7.465 12.1548 8.27C12.1548 8.62 11.8548 8.77 11.5548 8.77C10.9548 8.77 11.0548 7.92 9.79985 7.92C9.19985 7.92 8.84985 8.22 8.84985 8.62C8.84985 9.02 9.34985 9.17 9.74985 9.22L10.8498 9.47C12.0498 9.72 12.3498 10.47 12.3498 11.125C12.3998 12.075 11.5998 12.88 9.99485 12.88H9.99985ZM14.6548 10.825C14.6048 10.775 14.6048 10.825 14.6548 10.825C14.6963 10.5437 14.7131 10.2593 14.7048 9.975C14.6979 9.33603 14.5619 8.70505 14.3048 8.12C14.0482 7.5729 13.7112 7.0673 13.3048 6.62C12.8838 6.18116 12.3719 5.83983 11.8048 5.62C11.2395 5.35625 10.6237 5.21808 9.99985 5.215C9.69761 5.22354 9.39659 5.25698 9.09985 5.315L9.14985 5.365H9.09985C8.69838 5.1454 8.25199 5.02055 7.79485 5C7.05213 5.00988 6.33949 5.29493 5.79485 5.8C5.53423 6.06271 5.32911 6.37515 5.19168 6.71873C5.05424 7.06232 4.98731 7.43003 4.99485 7.8C4.98014 8.27578 5.10156 8.74586 5.34485 9.155V9.205L5.29485 9.155C5.25337 9.41953 5.23663 9.68736 5.24485 9.955C5.25925 10.5883 5.37749 11.215 5.59485 11.81C5.83929 12.3639 6.1776 12.8713 6.59485 13.31C7.01585 13.7488 7.52784 14.0902 8.09485 14.31C8.6799 14.567 9.31087 14.7031 9.94985 14.71C10.2498 14.71 10.4998 14.66 10.7998 14.66L10.7498 14.61H10.7998C11.2267 14.8546 11.7131 14.9758 12.2048 14.96C12.9476 14.9501 13.6602 14.6651 14.2048 14.16C14.4655 13.8973 14.6706 13.5849 14.808 13.2413C14.9454 12.8977 15.0124 12.53 15.0048 12.16C14.9899 11.688 14.8704 11.2252 14.6548 10.805" fill="#888888"/>
</g>
<rect x="0.75" y="0.75" width="18.5" height="18.5" rx="9.25" stroke="#888888" stroke-width="1.5"/>
<defs>
<clipPath id="clip0_3358_2814">
<rect width="12" height="12" fill="white" transform="translate(4 4)"/>
</clipPath>
</defs>
</svg>
