<svg width="20" height="20" viewBox="0 0 20 20" fill="none" xmlns="http://www.w3.org/2000/svg">
<path d="M12.1163 8.27255C12.1484 8.28369 12.1827 8.28739 12.2165 8.28337H12.2498C12.3148 8.27942 12.3762 8.25181 12.4222 8.20576C12.4683 8.1597 12.4959 8.09838 12.4998 8.03337C12.5138 7.79321 12.4777 7.55276 12.3937 7.32733C12.3097 7.10189 12.1797 6.89642 12.0119 6.72397C11.8442 6.55152 11.6424 6.41588 11.4193 6.32568C11.1963 6.23548 10.957 6.19269 10.7165 6.20004C10.6502 6.20004 10.5866 6.22638 10.5397 6.27326C10.4928 6.32015 10.4665 6.38373 10.4665 6.45004C10.4665 6.51634 10.4928 6.57993 10.5397 6.62681C10.5866 6.6737 10.6502 6.70004 10.7165 6.70004C11.5498 6.78337 11.8832 7.20004 11.9665 8.03337C11.9625 8.06717 11.9662 8.10144 11.9773 8.1336C11.9885 8.16576 12.0068 8.19498 12.0308 8.21905C12.0549 8.24311 12.0841 8.26141 12.1163 8.27255Z" fill="#888888"/>
<path d="M13.4665 8.70004C13.4327 8.70406 13.3984 8.70036 13.3663 8.68922C13.3341 8.67807 13.3049 8.65978 13.2808 8.63571C13.2568 8.61164 13.2385 8.58243 13.2273 8.55027C13.2162 8.51811 13.2125 8.48384 13.2165 8.45004C13.2623 7.65713 12.9927 6.87827 12.4665 6.28337C12.1846 5.99399 11.8477 5.76384 11.4757 5.60643C11.1036 5.44902 10.7038 5.36752 10.2998 5.3667C10.2335 5.3667 10.1699 5.34037 10.1231 5.29348C10.0762 5.2466 10.0498 5.18301 10.0498 5.1167C10.0498 5.0504 10.0762 4.98681 10.1231 4.93993C10.1699 4.89304 10.2335 4.8667 10.2998 4.8667C11.2688 4.89097 12.1935 5.2775 12.8915 5.95004C13.4974 6.64032 13.8242 7.53169 13.8082 8.45004C13.8082 8.6167 13.6415 8.70004 13.4748 8.70004H13.4665Z" fill="#888888"/>
<path d="M14.7079 9.15588C14.7401 9.16702 14.7744 9.17072 14.8082 9.16671L14.7998 9.17504C14.8643 9.1738 14.9277 9.1582 14.9853 9.12937C15.043 9.10054 15.0935 9.0592 15.1332 9.00837C15.1656 8.27371 15.0495 7.54005 14.7917 6.85131C14.534 6.16258 14.1399 5.53292 13.6332 5.00004C13.1448 4.50738 12.5612 4.11952 11.9178 3.86018C11.2745 3.60083 10.585 3.47545 9.89149 3.4917C9.85769 3.48768 9.82342 3.49139 9.79126 3.50253C9.7591 3.51367 9.72988 3.53196 9.70581 3.55603C9.68175 3.5801 9.66345 3.60931 9.65231 3.64147C9.64117 3.67364 9.63747 3.70791 9.64149 3.7417C9.63747 3.7755 9.64117 3.80977 9.65231 3.84194C9.66345 3.8741 9.68175 3.90331 9.70581 3.92738C9.72988 3.95145 9.7591 3.96974 9.79126 3.98088C9.82342 3.99202 9.85769 3.99572 9.89149 3.9917C11.1293 4.00817 12.3171 4.48326 13.2248 5.32504C13.6953 5.79042 14.0584 6.35299 14.2887 6.9734C14.5191 7.5938 14.611 8.25704 14.5582 8.9167C14.5541 8.9505 14.5578 8.98477 14.569 9.01694C14.5801 9.0491 14.5984 9.07831 14.6225 9.10238C14.6465 9.12645 14.6758 9.14474 14.7079 9.15588Z" fill="#888888"/>
<path d="M11.2165 11.2584C11.0722 11.3666 10.8968 11.425 10.7165 11.425L10.6748 11.4584C9.91476 11.2422 9.22678 10.8257 8.68288 10.2525C8.13898 9.67927 7.75915 8.97039 7.58315 8.20004C7.58315 8.20004 7.49982 7.78337 7.74982 7.6167L8.24982 7.28337C8.40102 7.17022 8.50274 7.00309 8.53378 6.81681C8.56483 6.63053 8.52281 6.43945 8.41649 6.28337C8.0559 5.66195 7.63737 5.07601 7.16649 4.53337C7.05402 4.40756 6.9028 4.32285 6.73677 4.29266C6.57073 4.26248 6.39938 4.28853 6.24982 4.3667C5.86565 4.54057 5.5243 4.79659 5.24982 5.1167C5.02005 5.30416 4.87092 5.57259 4.83315 5.8667C4.79195 5.92837 4.76996 6.00087 4.76996 6.07504C4.76996 6.1492 4.79195 6.2217 4.83315 6.28337C5.08092 7.04209 5.41653 7.76925 5.83315 8.45004C6.36215 9.41595 7.02106 10.3048 7.79149 11.0917C8.59131 11.8499 9.49137 12.4948 10.4665 13.0084C11.1472 13.4252 11.8743 13.7608 12.6332 14.0084C12.7309 14.0747 12.849 14.1042 12.9665 14.0917C13.3047 14.0402 13.622 13.896 13.8832 13.675C14.2001 13.431 14.4568 13.1174 14.6332 12.7584C14.7113 12.6088 14.7374 12.4375 14.7072 12.2714C14.677 12.1054 14.5923 11.9542 14.4665 11.8417C13.8889 11.3779 13.2759 10.96 12.6332 10.5917C12.4713 10.5057 12.2857 10.4754 12.1049 10.5055C11.9241 10.5356 11.7583 10.6245 11.6332 10.7584L11.2165 11.2584Z" fill="#888888"/>
<path fill-rule="evenodd" clip-rule="evenodd" d="M10.3748 0.016705C14.8915 0.016705 16.8915 1.43337 17.3915 1.93337C18.9832 3.33337 19.8832 6.61671 19.2998 11.5417C18.7518 16.1686 15.475 16.89 14.5276 17.0985C14.4665 17.112 14.4152 17.1233 14.3748 17.1334C12.4346 17.5868 10.4344 17.7274 8.44982 17.55L7.28316 18.8834C7.14982 19.0167 7.02982 19.1467 6.91782 19.268C6.46982 19.7534 6.14982 20.1 5.61649 19.9667C5.11649 19.8 5.11649 18.9667 5.11649 18.9667V16.9667C0.441489 15.6334 0.441489 10.875 0.524822 8.20004C0.608156 5.52504 1.10816 3.4417 2.52482 2.01671C5.11649 -0.316628 10.3748 0.016705 10.3748 0.016705ZM14.1073 15.6512C14.9673 15.4516 17.4422 14.877 17.8915 11.2L17.8665 11.1917C18.3665 6.95004 17.6998 4.10837 16.2832 2.85837C15.8665 2.52504 14.0332 1.35837 10.2748 1.35837C10.2748 1.35837 5.77482 1.02504 3.60816 3.02504C2.44149 4.27504 2.02482 6.02504 1.94149 8.20004L1.93608 8.33903C1.84956 10.5483 1.69195 14.5727 5.61649 15.6334V18.9667C5.61649 19.1334 5.69982 19.2167 5.78316 19.3C5.86649 19.3834 6.03316 19.3 6.11649 19.2167C6.79149 18.55 8.79149 16.125 8.79149 16.125C10.5 16.241 12.2162 16.1006 13.8832 15.7084C13.9338 15.6915 14.0103 15.6737 14.1073 15.6512Z" fill="#888888"/>
</svg>
