<svg width="20" height="20" viewBox="0 0 20 20" fill="none" xmlns="http://www.w3.org/2000/svg">
<path d="M13.5686 7.58252H14.5373C14.494 7.68425 14.4291 7.8172 14.3413 7.97868C14.1951 8.24754 14.0104 8.55067 13.8264 8.83886C13.643 9.126 13.4637 9.39305 13.3301 9.58862C13.2633 9.68628 13.2082 9.76579 13.1698 9.82071L13.1256 9.88375L13.1142 9.89987L13.1115 9.90382L13.1108 9.90472L13.1107 9.90491L13.1107 9.90493L13.1022 9.91679L13.0945 9.92914C13.0917 9.93359 13.0887 9.93841 13.0854 9.94357C13.0334 10.026 12.9253 10.1969 12.9087 10.4047C12.8881 10.6622 13.004 10.8648 13.1181 11.0132C13.207 11.1345 13.3608 11.2848 13.486 11.4073C13.4957 11.4168 13.5053 11.4261 13.5146 11.4353C13.6695 11.587 13.822 11.7374 13.9402 11.8771L13.9401 11.8772L13.9482 11.8863C14.1957 12.1647 14.4037 12.4114 14.5605 12.6236C14.6483 12.7424 14.7119 12.8398 14.7561 12.9173H13.7353C13.6981 12.9173 13.6871 12.9117 13.6772 12.9065C13.6564 12.8957 13.6158 12.8681 13.5358 12.7879C13.4701 12.722 13.3985 12.6424 13.3018 12.5348C13.2777 12.508 13.252 12.4795 13.2246 12.449C13.0915 12.3016 12.9286 12.124 12.7222 11.9176L12.7222 11.9175L12.7157 11.9112C12.0143 11.2349 11.5915 11.0171 11.2064 11.0171C11.0802 11.0171 10.7811 11.0239 10.5762 11.2785C10.4836 11.3937 10.4441 11.5199 10.425 11.619C10.406 11.7177 10.4013 11.8207 10.4013 11.917V12.8982C10.3283 12.9093 10.2214 12.9173 10.0678 12.9173C9.03048 12.9173 7.81205 12.2786 6.91888 10.9964L6.9189 10.9964L6.91564 10.9918C6.21435 10.0088 5.77227 9.15188 5.50709 8.51164C5.37438 8.19125 5.28686 7.92727 5.23331 7.73092C5.21808 7.6751 5.20583 7.62559 5.19615 7.58252H6.23354C6.23472 7.58252 6.23589 7.58252 6.23702 7.58253C6.24913 7.60788 6.26433 7.64492 6.28313 7.69919C6.58072 8.56575 6.98051 9.37977 7.36332 9.98473C7.55385 10.2858 7.74896 10.5491 7.93472 10.7438C8.0271 10.8407 8.12852 10.9326 8.23648 11.0036C8.33521 11.0686 8.49225 11.1517 8.68444 11.1517C8.75342 11.1517 8.86663 11.145 8.98653 11.0909C9.12039 11.0304 9.22032 10.9306 9.28566 10.8127C9.39063 10.6232 9.40083 10.3904 9.40083 10.2066V8.4881V8.47441L9.40008 8.46075C9.37833 8.06375 9.27704 7.78928 9.15521 7.58252H10.4013V9.82333C10.4013 10.1594 10.5767 10.657 11.0828 10.657C11.4707 10.657 11.7369 10.3956 11.9803 10.1521L11.9902 10.1423L11.9994 10.132C12.4594 9.61791 12.8401 8.98029 13.1011 8.48708C13.2331 8.2375 13.3378 8.01852 13.4098 7.86134C13.4458 7.78265 13.4737 7.71918 13.4929 7.67479C13.5024 7.65258 13.5099 7.63513 13.515 7.62291L13.521 7.60856L13.5215 7.60727C13.526 7.59697 13.5298 7.58979 13.5326 7.585C13.5398 7.5838 13.5514 7.58252 13.5686 7.58252ZM5.16685 7.40361C5.16689 7.40366 5.16684 7.40474 5.16661 7.40673L5.16685 7.40361ZM5.01452 7.58607C5.01449 7.58604 5.01521 7.58585 5.01676 7.58557L5.01452 7.58607Z" fill="#888888" stroke="#888888"/>
<rect x="0.75" y="0.75" width="18.5" height="18.5" rx="9.25" stroke="#888888" stroke-width="1.5"/>
</svg>
