<svg width="20" height="20" viewBox="0 0 20 20" fill="none" xmlns="http://www.w3.org/2000/svg">
<path d="M14.1667 11.8334C13.9167 11.7501 12.8334 11.1667 12.5834 11.0834C12.3334 11.0001 12.2501 11.0001 12.0834 11.1667C11.8541 11.4886 11.6035 11.7949 11.3334 12.0834C11.1667 12.2501 11.0834 12.2501 10.8334 12.1667C10.1367 11.9322 9.50755 11.5318 9.00007 11.0001C8.48341 10.5595 8.05865 10.0215 7.75007 9.41673C7.5834 9.16673 7.75006 9.0834 7.8334 8.91673C7.96432 8.79492 8.07663 8.65453 8.16673 8.50006C8.25007 8.3334 8.3334 8.25006 8.41673 8.0834C8.50007 7.91673 8.41673 7.8334 8.41673 7.66673C8.41673 7.50006 7.91673 6.41673 7.66673 6.00006C7.41673 5.5834 7.3334 5.5834 7.16673 5.5834H6.75007C6.53172 5.59313 6.32437 5.682 6.16673 5.8334C5.89277 6.06975 5.67559 6.3648 5.53132 6.69662C5.38705 7.02845 5.3194 7.38851 5.3334 7.75006C5.40976 8.60198 5.72779 9.41438 6.25007 10.0917C7.19669 11.5915 8.56093 12.7819 10.1751 13.5167C10.7584 13.7667 11.1751 13.8501 11.5084 14.0167C11.966 14.1635 12.4534 14.1922 12.9251 14.1001C13.561 13.9303 14.1198 13.548 14.5084 13.0167C14.6137 12.665 14.6698 12.3005 14.6751 11.9334C14.5048 11.9348 14.3356 11.9067 14.1751 11.8501L14.1667 11.8334ZM10.0001 17.5001C8.6157 17.5167 7.25491 17.1411 6.07507 16.4167L5.82507 16.2501L2.90007 17.0001L3.6584 14.1667L3.49173 13.9167C2.72997 12.6878 2.32595 11.2709 2.32507 9.82506C2.32342 8.30474 2.77285 6.81809 3.61647 5.5533C4.46009 4.28851 5.65998 3.30242 7.06426 2.71986C8.46855 2.13729 10.0141 1.98443 11.5053 2.28063C12.9965 2.57683 14.3663 3.30876 15.4413 4.3838C16.5164 5.45883 17.2483 6.82864 17.5445 8.31983C17.8407 9.81103 17.6878 11.3566 17.1053 12.7609C16.5227 14.1652 15.5366 15.365 14.2718 16.2087C13.007 17.0523 11.5204 17.5017 10.0001 17.5001ZM16.5084 3.40006C14.7586 1.71341 12.4303 0.759422 10.0001 0.733398C7.56891 0.733398 5.23734 1.69917 3.51825 3.41825C1.79917 5.13734 0.833398 7.46891 0.833398 9.90006C0.832992 11.5147 1.26458 13.1001 2.0834 14.4917L0.733398 19.2667L5.6584 18.0167C7.01457 18.7553 8.53943 19.1286 10.0834 19.1001C11.2872 19.1001 12.4792 18.863 13.5913 18.4023C14.7035 17.9416 15.714 17.2664 16.5652 16.4152C17.4164 15.564 18.0916 14.5535 18.5523 13.4413C19.013 12.3292 19.2501 11.1372 19.2501 9.9334C19.191 7.49227 18.2048 5.1652 16.4917 3.42507" fill="#888888"/>
</svg>
