<svg width="198" height="169" viewBox="0 0 198 169" fill="none" xmlns="http://www.w3.org/2000/svg">
<mask id="path-1-outside-1_1900_31966" maskUnits="userSpaceOnUse" x="0" y="0" width="198" height="169" fill="black">
<rect fill="white" width="198" height="169"/>
<path fill-rule="evenodd" clip-rule="evenodd" d="M9 1C4.58172 1 1 4.58172 1 9V153C1 157.418 4.58172 161 9 161H189C193.418 161 197 157.418 197 153V9C197 4.58172 193.418 1 189 1H9ZM21.5359 161.066L25 167L28.4641 161.066H21.5359Z"/>
</mask>
<path fill-rule="evenodd" clip-rule="evenodd" d="M9 1C4.58172 1 1 4.58172 1 9V153C1 157.418 4.58172 161 9 161H189C193.418 161 197 157.418 197 153V9C197 4.58172 193.418 1 189 1H9ZM21.5359 161.066L25 167L28.4641 161.066H21.5359Z" fill="white"/>
<path d="M25 167L24.1364 167.504L25 168.984L25.8636 167.504L25 167ZM21.5359 161.066V160.066H19.7942L20.6723 161.57L21.5359 161.066ZM28.4641 161.066L29.3277 161.57L30.2058 160.066H28.4641V161.066ZM2 9C2 5.13401 5.13401 2 9 2V0C4.02944 0 0 4.02944 0 9H2ZM2 153V9H0V153H2ZM9 160C5.134 160 2 156.866 2 153H0C0 157.971 4.02943 162 9 162V160ZM189 160H9V162H189V160ZM196 153C196 156.866 192.866 160 189 160V162C193.971 162 198 157.971 198 153H196ZM196 9V153H198V9H196ZM189 2C192.866 2 196 5.13401 196 9H198C198 4.02944 193.971 0 189 0V2ZM9 2H189V0H9V2ZM25.8636 166.496L22.3995 160.562L20.6723 161.57L24.1364 167.504L25.8636 166.496ZM27.6005 160.562L24.1364 166.496L25.8636 167.504L29.3277 161.57L27.6005 160.562ZM21.5359 162.066H28.4641V160.066H21.5359V162.066Z" fill="#E5E5E5" mask="url(#path-1-outside-1_1900_31966)"/>
</svg>
